<svg xmlns="http://www.w3.org/2000/svg" viewBox="0 0 187.26 50.5"><defs><style>.cls-1{fill:#fff;}</style></defs><g id="Layer_2" data-name="Layer 2"><g id="Layer_1-2" data-name="Layer 1"><path class="cls-1" d="M1.27,24.12a1.22,1.22,0,0,0-.68.16,1.18,1.18,0,0,0-.43,1.61.8.8,0,0,0,.15.21,1.21,1.21,0,0,0,1.29.33A1.18,1.18,0,0,0,2.17,26a1.17,1.17,0,0,0-.07-1.51A1.23,1.23,0,0,0,1.27,24.12Zm14,.94a3.65,3.65,0,0,0,1,2.66,3.73,3.73,0,0,0,4.83.61,3.66,3.66,0,0,0,.63-5.6,3.7,3.7,0,0,0-1.85-1.05,3.77,3.77,0,0,0-2.13.13A3.83,3.83,0,0,0,16,23.07a3.68,3.68,0,0,0-.72,2Z"/><path class="cls-1" d="M1.27,24.12a1.22,1.22,0,0,0-.68.16,1.18,1.18,0,0,0-.43,1.61.8.8,0,0,0,.15.21,1.21,1.21,0,0,0,1.29.33A1.18,1.18,0,0,0,2.17,26a1.17,1.17,0,0,0-.07-1.51A1.23,1.23,0,0,0,1.27,24.12ZM15,3.7A1.19,1.19,0,0,0,15.61,3a1.17,1.17,0,0,0-.07-.9,1.22,1.22,0,0,0-2-.24,1.15,1.15,0,0,0-.29.86,1.16,1.16,0,0,0,.12.45,1.23,1.23,0,0,0,.71.59A1.18,1.18,0,0,0,15,3.7Zm3.8,6.51a1.85,1.85,0,0,0,.94-1.06,1.82,1.82,0,0,0-.1-1.41,2,2,0,0,0-1.09-.92,1.92,1.92,0,0,0-2,.55,1.8,1.8,0,0,0-.25,2,1.81,1.81,0,0,0,1.09.92,1.89,1.89,0,0,0,1.42-.11ZM6,14.69a1.55,1.55,0,0,0,2.13-.44,1.49,1.49,0,0,0-.41-2.07l0,0a1.56,1.56,0,0,0-2.14.43A1.5,1.5,0,0,0,6,14.67Zm2.28,8.76a2,2,0,0,0-1,.26,1.83,1.83,0,0,0-.72.79,1.81,1.81,0,0,0,.29,2,1.89,1.89,0,0,0,2.66.11,1.51,1.51,0,0,0,.21-.23,1.84,1.84,0,0,0-.1-2.34A1.94,1.94,0,0,0,8.29,23.45ZM6.21,35.81a1.51,1.51,0,0,0-.76.88,1.48,1.48,0,0,0,.08,1.15,1.54,1.54,0,0,0,2.92-.79,1.45,1.45,0,0,0-.17-.57,1.53,1.53,0,0,0-.89-.76,1.61,1.61,0,0,0-1.18.09Zm7.28-16.15a2.22,2.22,0,0,0,3-.63,2.14,2.14,0,0,0-.64-3,2.18,2.18,0,0,0-1.65-.31,2.23,2.23,0,0,0-1.4.93,2.15,2.15,0,0,0,.59,3Zm23.08-9.59a1.94,1.94,0,0,0,1.41.26,1.87,1.87,0,0,0,1.18-.79A1.83,1.83,0,0,0,38.66,7l0,0A1.89,1.89,0,0,0,36,7.52a1.82,1.82,0,0,0,.54,2.55Zm3.84-6.49a1.24,1.24,0,0,0,1.68-.35,1.18,1.18,0,0,0-.33-1.63h0a1.23,1.23,0,0,0-1.68.34,1.18,1.18,0,0,0,0,1.32A1.33,1.33,0,0,0,40.41,3.58Zm-3.55,18a3.79,3.79,0,0,0-2.69.93,3.68,3.68,0,0,0-.3,5.2,3.78,3.78,0,0,0,5.35.23,3.72,3.72,0,0,0,1.17-2.47,3.61,3.61,0,0,0-.94-2.66,3.76,3.76,0,0,0-2.59-1.23ZM20,19.4a3.74,3.74,0,0,0,3.35,2,4,4,0,0,0,1.69-.4,3.72,3.72,0,0,0,1.71-1.73A3.67,3.67,0,0,0,27,16.88a3.63,3.63,0,0,0-1.32-2,3.76,3.76,0,0,0-2.32-.79,3.82,3.82,0,0,0-1.69.4A3.66,3.66,0,0,0,20,19.4Zm29.39-4.71a1.5,1.5,0,0,0,.68-2,1.56,1.56,0,0,0-2.55-.31,1.53,1.53,0,0,0-.36,1.1,1.39,1.39,0,0,0,.16.57,1.49,1.49,0,0,0,.89.76,1.56,1.56,0,0,0,1.18-.08Zm-9.51,1.17a2.14,2.14,0,0,0,.3,4,2.21,2.21,0,0,0,2.36-.64,2.14,2.14,0,0,0,.53-1.57,2.09,2.09,0,0,0-.23-.81,2.17,2.17,0,0,0-1.28-1.08A2.23,2.23,0,0,0,39.91,15.86ZM27.67,3a1.49,1.49,0,0,0,.86-.21A1.51,1.51,0,0,0,28.89.5,1.55,1.55,0,0,0,26.7.41L26.52.6a1.55,1.55,0,0,0-.3.83,1.51,1.51,0,0,0,.39,1.09A1.56,1.56,0,0,0,27.67,3Zm0,9.53a2.19,2.19,0,0,0,2.09-1.23,2.15,2.15,0,0,0-.35-2.38,2.21,2.21,0,0,0-2.35-.6,2.16,2.16,0,0,0-1,.75,2.12,2.12,0,0,0,.12,2.74A2.21,2.21,0,0,0,27.66,12.55ZM15.72,34.64a2.17,2.17,0,0,0,1.1-1.26,2.11,2.11,0,0,0-.12-1.65,2.23,2.23,0,0,0-3.64-.44,2.15,2.15,0,0,0-.53,1.57,2.34,2.34,0,0,0,.23.82A2.24,2.24,0,0,0,14,34.76,2.27,2.27,0,0,0,15.72,34.64ZM29.08,15.71a3.65,3.65,0,0,0-.53,2.77,3.61,3.61,0,0,0,.57,1.32,3.67,3.67,0,0,0,1,1,3.78,3.78,0,0,0,5.19-1.06A3.65,3.65,0,0,0,35.88,17a3.61,3.61,0,0,0-.57-1.32,3.54,3.54,0,0,0-1-1,3.78,3.78,0,0,0-5.19,1.06Zm6.51,15.38a3.71,3.71,0,0,0-1.38-1.48,3.82,3.82,0,0,0-3.65-.15,3.7,3.7,0,0,0-1.71,1.74,3.67,3.67,0,0,0,1.08,4.45,3.73,3.73,0,0,0,2.32.78A3.84,3.84,0,0,0,33.94,36a4.1,4.1,0,0,0,1.15-.88,3.68,3.68,0,0,0,.5-4.07Zm6.55-.25a2.18,2.18,0,0,0-1.65-.31,2.23,2.23,0,0,0-1.4.93,2.14,2.14,0,0,0-.31,1.63,2.16,2.16,0,0,0,.95,1.37,2.22,2.22,0,0,0,3.05-.63,2.14,2.14,0,0,0-.64-3Zm7.18-5.53a1.84,1.84,0,0,0-1-1.78,1.88,1.88,0,0,0-2.06.28,1.82,1.82,0,0,0-.53,2,1.86,1.86,0,0,0,.64.87,1.92,1.92,0,0,0,1,.37,1.87,1.87,0,0,0,1.35-.46A1.82,1.82,0,0,0,49.32,25.31ZM54.5,24a1.22,1.22,0,0,0-.67.17,1.17,1.17,0,0,0-.43,1.61,1.37,1.37,0,0,0,.15.21,1.2,1.2,0,0,0,1.29.33,1.22,1.22,0,0,0,.56-.41,1.13,1.13,0,0,0,.24-.65,1.17,1.17,0,0,0-.3-.86A1.24,1.24,0,0,0,54.5,24ZM49.62,35.8a1.56,1.56,0,0,0-2.13.44,1.5,1.5,0,0,0,.41,2.08l0,0a1.58,1.58,0,0,0,2.14-.44,1.5,1.5,0,0,0-.42-2.08ZM15.22,46.92a1.23,1.23,0,0,0-1.68.34,1.18,1.18,0,0,0,.33,1.63l0,0a1.23,1.23,0,0,0,1.68-.35,1.17,1.17,0,0,0-.32-1.63Zm25.41-.13a1.2,1.2,0,0,0-.54,1.6,1.23,1.23,0,0,0,2,.24,1.16,1.16,0,0,0,.29-.87,1.21,1.21,0,0,0-.12-.45,1.23,1.23,0,0,0-1.63-.52Zm-14.08-12a3.62,3.62,0,0,0,0-4.09,3.88,3.88,0,0,0-1.05-1,3.8,3.8,0,0,0-2.81-.52,3.76,3.76,0,0,0-2.38,1.58,3.66,3.66,0,0,0-.53,2.77,3.54,3.54,0,0,0,.57,1.32,3.74,3.74,0,0,0,3.86,1.53,3.71,3.71,0,0,0,2.37-1.58Zm-7.49,5.63a1.91,1.91,0,0,0-1.4-.26,1.89,1.89,0,0,0-1.19.79,1.82,1.82,0,0,0,.5,2.52l0,0a1.89,1.89,0,0,0,1.41.26A1.87,1.87,0,0,0,19.6,43a1.82,1.82,0,0,0-.54-2.55Zm8.74,7a1.61,1.61,0,0,0-.86.21,1.56,1.56,0,0,0-.6.65A1.51,1.51,0,0,0,26.58,50a1.55,1.55,0,0,0,2.19.09l.18-.2a1.52,1.52,0,0,0,.3-.82,1.52,1.52,0,0,0-1.45-1.6Zm0-9.53a2.23,2.23,0,0,0-1.24.31,2.18,2.18,0,0,0-.86.92,2.15,2.15,0,0,0,.35,2.38,2.24,2.24,0,0,0,1.09.66,2.29,2.29,0,0,0,1.27-.06,2.16,2.16,0,0,0,1-.74,2.19,2.19,0,0,0,.44-1.18,2.16,2.16,0,0,0-.56-1.57A2.21,2.21,0,0,0,27.82,37.94Zm9,2.34a1.88,1.88,0,0,0-.94,1.06A1.82,1.82,0,0,0,36,42.75a1.84,1.84,0,0,0,1.09.92,1.9,1.9,0,0,0,2-.54,1.87,1.87,0,0,0,.45-1.34,1.94,1.94,0,0,0-.2-.7,1.89,1.89,0,0,0-2.51-.81ZM67.07,26H78.68v2.52H70.09v4.3h7.74v2.52H70.09v6.52h-3V26Zm12.41,9.78c0-4.37,2-6.36,6.1-6.36s6.1,2,6.1,6.36-2.05,6.36-6.1,6.36-6.1-2-6.1-6.36Zm9.28.16v-.32c0-2.64-.92-3.93-3.18-3.93S82.4,33,82.4,35.62v.32c0,2.64.9,3.93,3.18,3.93S88.76,38.58,88.76,35.94Zm5.37,2V29.7H97v7.72c0,1.73.87,2.32,2.29,2.32a2.88,2.88,0,0,0,2-.89,2.83,2.83,0,0,0,.75-2.07V29.7h2.82V41.86h-2.33l-.24-1.62h-.16a4.8,4.8,0,0,1-1.76,1.43,4.85,4.85,0,0,1-2.22.47c-2.38,0-4-1.14-4-4.23Zm14-8.21h2.33l.24,1.61h.16a5,5,0,0,1,1.76-1.42,4.88,4.88,0,0,1,2.22-.47c2.36,0,4,1.13,4,4.23v8.21H116V34.14c0-1.74-.87-2.32-2.28-2.32a2.82,2.82,0,0,0-2,.89,2.75,2.75,0,0,0-.75,2.07v7.08h-2.83Zm13.14,6.05c0-4.37,2-6.33,4.76-6.33a4.18,4.18,0,0,1,2.09.36,4.06,4.06,0,0,1,1.63,1.33h.14v-6h2.83V41.86H130.4l-.24-1.62H130a4.3,4.3,0,0,1-1.64,1.44,4.46,4.46,0,0,1-2.15.46C123.19,42.14,121.28,40.19,121.28,35.75Zm8.62.19v-.28c0-2.47-.85-3.86-2.83-3.86s-2.87,1.2-2.87,3.84v.3c0,2.61.76,3.81,2.87,3.81S129.9,38.39,129.9,35.94Zm5.2,2.77c0-3.3,3.23-4.23,7.77-4.23v-1c0-1-.38-1.85-2.11-1.85s-2.29.71-2.29,1.36v.32h-2.73a2.9,2.9,0,0,1,0-.51c0-2.1,2-3.37,5-3.37,3.34,0,4.94,1.41,4.94,3.84v5.8a.77.77,0,0,0,.5.77.93.93,0,0,0,.33,0h.75v1.9a4.45,4.45,0,0,1-1.76.34,2.28,2.28,0,0,1-1.48-.4,2.25,2.25,0,0,1-.88-1.24H143a4.77,4.77,0,0,1-4,1.66c-1.42,0-3.94-.46-3.94-3.41ZM142.87,37v-.55c-2.68,0-4.87.37-4.87,2,0,1,.63,1.48,1.88,1.48a2.79,2.79,0,0,0,2.18-.78,2.72,2.72,0,0,0,.81-2.14Zm6.41,2.11V32h-1.51V29.7h1.55l.52-3.4h2.26v3.4h2.12V32H152.1v6.87a.92.92,0,0,0,.25.77.94.94,0,0,0,.76.27h1.11v1.9a6.37,6.37,0,0,1-2,.37A2.72,2.72,0,0,1,149.28,39.11Zm7.23-14h2.77v2.73h-2.77V25.14Zm0,4.56h2.82V41.86h-2.82Zm5.32,6.08c0-4.37,2-6.36,6.1-6.36s6.1,2,6.1,6.36-2.05,6.36-6.1,6.36-6.1-2-6.1-6.36Zm9.28.16v-.32c0-2.64-.92-3.93-3.18-3.93s-3.18,1.29-3.18,3.93v.32c0,2.64.9,3.93,3.18,3.93s3.18-1.29,3.18-3.93Zm5.43-6.24h2.34l.23,1.61h.17A4.84,4.84,0,0,1,181,29.89a4.92,4.92,0,0,1,2.23-.47c2.35,0,4,1.13,4,4.23v8.21h-2.82V34.14c0-1.74-.88-2.32-2.29-2.32a2.8,2.8,0,0,0-2.78,3v7.08h-2.82ZM66.44,12.82c0-5.58,2.87-8.21,7.81-8.21,4,0,7.14,2,7.14,6.12H78.3c0-2.35-1.65-3.63-4-3.63-3.25,0-4.78,1.85-4.78,5.48v.47c0,3.7,1.51,5.48,4.78,5.48,2.49,0,4.12-1.27,4.12-3.59h3c0,4.14-3.06,6.08-7.14,6.08-4.94,0-7.82-2.49-7.82-8.2Zm16.69,4.79c0-3.31,3.23-4.24,7.77-4.24v-1c0-1-.37-1.85-2.11-1.85s-2.29.71-2.29,1.36v.32H83.77a2.75,2.75,0,0,1,0-.5c0-2.11,2-3.38,5-3.38,3.34,0,4.94,1.41,4.94,3.84V18a.75.75,0,0,0,.22.6.79.79,0,0,0,.61.21h.75v1.9a4.47,4.47,0,0,1-1.77.35,2.27,2.27,0,0,1-1.47-.41,2.22,2.22,0,0,1-.88-1.24H91a4.74,4.74,0,0,1-1.77,1.3,4.81,4.81,0,0,1-2.18.37c-1.42,0-3.94-.47-3.94-3.42ZM90.9,15.9v-.56c-2.68,0-4.87.37-4.87,2,0,1,.64,1.48,1.88,1.48A2.78,2.78,0,0,0,90.09,18a2.71,2.71,0,0,0,.65-1A2.66,2.66,0,0,0,90.9,15.9Zm6.24-7.31h2.34l.25,1.92h.17a2.92,2.92,0,0,1,2.78-2.2,3.41,3.41,0,0,1,1.18.21v2.61H103c-1.93,0-3,1-3,3.29v6.33H97.14Zm7.92,6.06c0-4.38,2-6.34,4.75-6.34A4.19,4.19,0,0,1,113.54,10h.14V4h2.82V20.75h-2.33l-.23-1.62h-.14A4.38,4.38,0,0,1,110,21C107,21,105.05,19.09,105.06,14.65Zm8.61.18v-.28c0-2.47-.84-3.86-2.82-3.86S108,11.89,108,14.53v.3c0,2.61.75,3.81,2.87,3.81S113.67,17.28,113.67,14.83Zm5.21,2.78c0-3.31,3.22-4.24,7.77-4.24v-1c0-1-.38-1.85-2.12-1.85s-2.29.71-2.29,1.36v.32h-2.73a2.75,2.75,0,0,1,0-.5c0-2.11,2-3.38,5-3.38,3.34,0,4.94,1.41,4.94,3.84V18a.76.76,0,0,0,.83.81h.75v1.9a4.46,4.46,0,0,1-1.76.35,2.29,2.29,0,0,1-1.48-.41,2.19,2.19,0,0,1-.88-1.24h-.16a4.81,4.81,0,0,1-4,1.67c-1.41,0-3.93-.47-3.93-3.42Zm7.77-1.71v-.56c-2.69,0-4.88.37-4.88,2,0,1,.64,1.48,1.89,1.48a2.77,2.77,0,0,0,2.17-.77A2.7,2.7,0,0,0,126.65,15.9Zm6.24-7.31h2.33l.23,1.62h.17a4.77,4.77,0,0,1,1.75-1.43,4.92,4.92,0,0,1,2.23-.47c2.35,0,4,1.13,4,4.23v8.21h-2.82V13c0-1.74-.87-2.32-2.29-2.32a2.8,2.8,0,0,0-2.78,3v7.08h-2.82Zm13.16,6.08c0-4.37,2-6.36,6.1-6.36s6.1,2,6.1,6.36S156.2,21,152.15,21,146.05,19,146.05,14.67Zm9.28.16v-.32c0-2.64-.92-3.93-3.18-3.93S149,11.87,149,14.51v.32c0,2.64.89,3.93,3.18,3.93S155.33,17.47,155.33,14.83Z"/></g></g></svg>