<svg xmlns="http://www.w3.org/2000/svg" viewBox="0 0 50.79 50.79"><defs><style>.cls-1{fill:none;stroke:#cba2a6;stroke-miterlimit:10;}.cls-2{fill:#cba2a6;}</style></defs><g id="Layer_2" data-name="Layer 2"><g id="Layer_1-2" data-name="Layer 1"><path class="cls-1" d="M25.4,50.29A24.9,24.9,0,1,0,.5,25.4,24.89,24.89,0,0,0,25.4,50.29Z"/><path class="cls-2" d="M10.86,25.18s12.45-5.11,16.77-6.91c1.65-.72,7.26-3,7.26-3s2.59-1,2.38,1.44c-.07,1-.65,4.53-1.22,8.35-.87,5.39-1.8,11.29-1.8,11.29s-.15,1.66-1.37,2-3.24-1-3.6-1.3-5.39-3.45-7.27-5a1.36,1.36,0,0,1,.08-2.3c2.59-2.37,5.68-5.32,7.55-7.19.87-.87,1.73-2.88-1.87-.44-5.11,3.53-10.14,6.84-10.14,6.84a4.23,4.23,0,0,1-3.31.07c-2.16-.65-4.68-1.51-4.68-1.51s-1.73-1.08,1.22-2.23Z"/></g></g></svg>