<svg xmlns="http://www.w3.org/2000/svg" viewBox="0 0 42.61 49.88"><defs><style>.cls-1{fill:none;stroke:#66243e;stroke-linecap:round;stroke-linejoin:round;stroke-width:3.77px;}</style></defs><g id="Layer_2" data-name="Layer 2"><g id="Layer_1-2" data-name="Layer 1"><path class="cls-1" d="M5.79,40.94A3.9,3.9,0,0,1,1.89,37V5.79a3.89,3.89,0,0,1,3.9-3.9H21.41a4.66,4.66,0,0,1,3.33,1.37l7,7a4.72,4.72,0,0,1,1.38,3.33V37a3.91,3.91,0,0,1-3.91,3.9Z"/><path class="cls-1" d="M39.34,17.32a4.71,4.71,0,0,1,1.39,3.34V44.08A3.92,3.92,0,0,1,36.82,48H13.39"/><path class="cls-1" d="M21.41,1.89v9.76a2,2,0,0,0,2,1.95h9.76"/><path class="cls-1" d="M13.6,15.55H9.7"/><path class="cls-1" d="M25.32,23.37H9.7"/><path class="cls-1" d="M25.32,31.18H9.7"/></g></g></svg>