<svg xmlns="http://www.w3.org/2000/svg" viewBox="0 0 44.22 48.71"><defs><style>.cls-1{fill:none;stroke:#66243e;stroke-linecap:round;stroke-linejoin:round;stroke-width:3.77px;}</style></defs><g id="Layer_2" data-name="Layer 2"><g id="Layer_1-2" data-name="Layer 1"><path class="cls-1" d="M19.86,46.22a4.52,4.52,0,0,0,4.5,0l15.73-9a4.51,4.51,0,0,0,2.24-3.89v-18a4.49,4.49,0,0,0-2.24-3.88l-15.73-9a4.47,4.47,0,0,0-4.5,0l-15.73,9a4.47,4.47,0,0,0-2.24,3.88v18a4.49,4.49,0,0,0,2.24,3.89Z"/><path class="cls-1" d="M22.11,46.82V24.35"/><polyline class="cls-1" points="2.54 13.12 22.11 24.35 41.68 13.12"/><path class="cls-1" d="M12,7,32.22,18.55"/></g></g></svg>