<svg xmlns="http://www.w3.org/2000/svg" viewBox="0 0 36.72 44.96"><defs><style>.cls-1{fill:none;stroke:#66243e;stroke-linecap:round;stroke-linejoin:round;stroke-width:3.77px;}</style></defs><g id="Layer_2" data-name="Layer 2"><g id="Layer_1-2" data-name="Layer 1"><path class="cls-1" d="M6,43.08A4.12,4.12,0,0,1,1.89,39V6A4.11,4.11,0,0,1,6,1.89H22.48A4.91,4.91,0,0,1,26,3.34l7.39,7.39a4.92,4.92,0,0,1,1.46,3.51V39a4.13,4.13,0,0,1-4.12,4.12Z"/><path class="cls-1" d="M22.48,1.89V12.18a2.06,2.06,0,0,0,2.06,2.06h10.3"/><path class="cls-1" d="M14.24,16.3H10.12"/><path class="cls-1" d="M26.6,24.54H10.12"/><path class="cls-1" d="M26.6,32.78H10.12"/></g></g></svg>