<svg xmlns="http://www.w3.org/2000/svg" viewBox="0 0 42.91 40.96"><defs><style>.cls-1{fill:none;stroke:#66243e;stroke-linecap:round;stroke-linejoin:round;stroke-width:3.77px;}</style></defs><g id="Layer_2" data-name="Layer 2"><g id="Layer_1-2" data-name="Layer 1"><path class="cls-1" d="M33.2,39.07V17.54a2,2,0,0,0-2-1.95H11.67a2,2,0,0,0-2,1.95V39.07"/><path class="cls-1" d="M41,35.16a3.91,3.91,0,0,1-3.92,3.91H5.8a3.91,3.91,0,0,1-3.91-3.91V13.63A3.89,3.89,0,0,1,4.1,10.1L19.66,2.32a3.94,3.94,0,0,1,3.6,0L38.81,10.1A3.9,3.9,0,0,1,41,13.63Z"/><path class="cls-1" d="M9.71,23.42H33.2"/><path class="cls-1" d="M9.71,31.24H33.2"/></g></g></svg>