<svg xmlns="http://www.w3.org/2000/svg" viewBox="0 0 48.32 46.84"><defs><style>.cls-1{fill:none;stroke:#66243e;stroke-linecap:round;stroke-linejoin:round;stroke-width:3.77px;}</style></defs><g id="Layer_2" data-name="Layer 2"><g id="Layer_1-2" data-name="Layer 1"><path class="cls-1" d="M4.05,25.46a4.45,4.45,0,0,0-2.16,3.81v7.22A4.44,4.44,0,0,0,4.05,40.3l6.68,4a4.45,4.45,0,0,0,4.59,0L24.16,39V26.76L13,20.07Z"/><path class="cls-1" d="M13,33.44,2.46,27.09"/><path class="cls-1" d="M13,33.44l11.14-6.68"/><path class="cls-1" d="M13,33.44V45"/><path class="cls-1" d="M24.16,26.76V39L33,44.31a4.45,4.45,0,0,0,4.59,0l6.68-4a4.44,4.44,0,0,0,2.16-3.81V29.27a4.45,4.45,0,0,0-2.16-3.81l-9-5.39Z"/><path class="cls-1" d="M35.3,33.44,24.16,26.76"/><path class="cls-1" d="M35.3,33.44l10.56-6.35"/><path class="cls-1" d="M35.3,33.44V45"/><path class="cls-1" d="M15.18,6.53A4.48,4.48,0,0,0,13,10.34v9.73l11.14,6.69L35.3,20.07V10.34a4.48,4.48,0,0,0-2.16-3.81l-6.69-4a4.43,4.43,0,0,0-4.58,0Z"/><path class="cls-1" d="M24.16,14.51,13.6,8.16"/><path class="cls-1" d="M24.16,14.51,34.72,8.16"/><path class="cls-1" d="M24.16,26.76V14.51"/></g></g></svg>