<svg xmlns="http://www.w3.org/2000/svg" viewBox="0 0 40.72 40.72"><defs><style>.cls-1{fill:none;stroke:#66243e;stroke-linecap:round;stroke-linejoin:round;stroke-width:3.77px;}</style></defs><g id="Layer_2" data-name="Layer 2"><g id="Layer_1-2" data-name="Layer 1"><path class="cls-1" d="M20.36,28.57h0"/><path class="cls-1" d="M28.57,28.57h0"/><path class="cls-1" d="M1.89,34.73A4.1,4.1,0,0,0,6,38.83H34.73a4.11,4.11,0,0,0,4.1-4.1V13.17a1,1,0,0,0-1-1,1,1,0,0,0-.56.16l-9.16,5.84a1,1,0,0,1-1.41-.32.91.91,0,0,1-.16-.55V13.17a1,1,0,0,0-1-1,1,1,0,0,0-.55.16l-9.16,5.84a1,1,0,0,1-1.42-.31,1.1,1.1,0,0,1-.16-.56V6a4.1,4.1,0,0,0-4.1-4.1H6A4.09,4.09,0,0,0,1.89,6Z"/><path class="cls-1" d="M12.15,28.57h0"/></g></g></svg>