<?xml version="1.0" encoding="UTF-8"?>
<svg id="Layer_1" data-name="Layer 1" xmlns="http://www.w3.org/2000/svg" viewBox="0 0 32 32">
  <rect width="32" height="32" rx="5" ry="5" fill="#66243e"/>
  <g>
    <path d="M9.09,13.24l-1.48,1.48c-.54.54-1.41.54-1.95,0l-1.48-1.48c-.54-.54-.54-1.41,0-1.95l1.48-1.48c.54-.54,1.41-.54,1.95,0l1.48,1.48c.54.54.54,1.41,0,1.95ZM18.45,11.29l-1.48-1.48c-.54-.54-1.41-.54-1.95,0l-1.48,1.48c-.54.54-.54,1.41,0,1.95l1.48,1.48c.54.54,1.41.54,1.95,0l1.48-1.48c.54-.54.54-1.41,0-1.95ZM27.82,11.29l-1.48-1.48c-.54-.54-1.41-.54-1.95,0l-1.48,1.48c-.54.54-.54,1.41,0,1.95l1.48,1.48c.54.54,1.41.54,1.95,0l1.48-1.48c.54-.54.54-1.41,0-1.95ZM13.77,15.97l-1.48-1.48c-.54-.54-1.41-.54-1.95,0l-1.48,1.48c-.54.54-.54,1.41,0,1.95l1.48,1.48c.54.54,1.41.54,1.95,0l1.48-1.48c.54-.54.54-1.41,0-1.95ZM23.13,15.97l-1.48-1.48c-.54-.54-1.41-.54-1.95,0l-1.48,1.48c-.54.54-.54,1.41,0,1.95l1.48,1.48c.54.54,1.41.54,1.95,0l1.48-1.48c.54-.54.54-1.41,0-1.95Z" fill="#fff"/>
    <path d="M9.09,13.24l-1.48,1.48c-.54.54-1.41.54-1.95,0l-1.48-1.48c-.54-.54-.54-1.41,0-1.95l1.48-1.48c.54-.54,1.41-.54,1.95,0l1.48,1.48c.54.54.54,1.41,0,1.95Z" fill="#fff"/>
    <rect x="13.58" y="19.27" width="4.85" height="4.85" rx="1.38" ry="1.38" transform="translate(-10.65 17.67) rotate(-45)" fill="#cba2a6"/>
  </g>
</svg>