<svg xmlns="http://www.w3.org/2000/svg" viewBox="0 0 152.15 100.63"><defs><style>.cls-1{fill:#fff;}.cls-2{fill:#cba2a6;}</style></defs><g id="Layer_2" data-name="Layer 2"><g id="Layer_1-2" data-name="Layer 1"><path class="cls-1" d="M44.92,15.41,39,21.35a5.56,5.56,0,0,1-7.85,0l-5.94-5.94a5.56,5.56,0,0,1,0-7.85l5.94-5.93a5.55,5.55,0,0,1,7.85,0l5.94,5.93A5.56,5.56,0,0,1,44.92,15.41ZM82.59,7.56,76.65,1.63a5.55,5.55,0,0,0-7.85,0L62.87,7.56a5.55,5.55,0,0,0,0,7.85l5.93,5.94a5.56,5.56,0,0,0,7.85,0l5.94-5.94A5.56,5.56,0,0,0,82.59,7.56Zm37.67,0-5.94-5.93a5.55,5.55,0,0,0-7.85,0l-5.93,5.93a5.55,5.55,0,0,0,0,7.85l5.93,5.94a5.56,5.56,0,0,0,7.85,0l5.94-5.94A5.55,5.55,0,0,0,120.26,7.56ZM63.75,26.4l-5.94-5.94a5.53,5.53,0,0,0-7.84,0L44,26.4a5.55,5.55,0,0,0,0,7.85L50,40.18a5.53,5.53,0,0,0,7.84,0l5.94-5.93A5.55,5.55,0,0,0,63.75,26.4Zm37.67,0-5.93-5.94a5.55,5.55,0,0,0-7.85,0L81.7,26.4a5.55,5.55,0,0,0,0,7.85l5.94,5.93a5.55,5.55,0,0,0,7.85,0l5.93-5.93A5.55,5.55,0,0,0,101.42,26.4Z"/><path class="cls-1" d="M44.92,15.41,39,21.35a5.56,5.56,0,0,1-7.85,0l-5.94-5.94a5.56,5.56,0,0,1,0-7.85l5.94-5.93a5.55,5.55,0,0,1,7.85,0l5.94,5.93A5.56,5.56,0,0,1,44.92,15.41Z"/><rect class="cls-2" x="62.98" y="39.68" width="19.5" height="19.5" rx="5.55" transform="translate(-13.65 65.9) rotate(-45)"/><path class="cls-1" d="M18.85,87.92l3-10.92h4.52L20.59,95.2h-3.2L13.21,83.27,9,95.2H5.82L0,77H4.52l3,10.92,4-10.92h3.27Zm11.66-7.3A2.41,2.41,0,1,1,33,78.2,2.4,2.4,0,0,1,30.51,80.62ZM28.38,95.2V82.1h4.27V95.2Zm11.78,0H35.89V82.1H40v2A4.35,4.35,0,0,1,44,81.79c3.14,0,4.7,2.15,4.7,5.27V95.2H44.42V87.77c0-1.36-.65-2.29-2.08-2.29a2,2,0,0,0-2.18,2.26Zm20.66-4.08h3.93a6.85,6.85,0,0,1-6.68,4.39c-4.58,0-7.18-2.86-7.18-6.89a6.62,6.62,0,0,1,7-6.83c4.06,0,7,2.65,7,6.89V90H55.08a2.76,2.76,0,0,0,3,2.47A3.07,3.07,0,0,0,60.82,91.12Zm-5.74-3.8h5.69a2.86,2.86,0,0,0-5.69,0ZM86.16,86.1c0,5.23-3.74,9.46-9.69,9.46S66.8,91.33,66.8,86.1s3.72-9.46,9.67-9.46S86.16,80.88,86.16,86.1Zm-4.41,0c0-2.91-1.8-5.66-5.28-5.66s-5.25,2.75-5.25,5.66,1.77,5.67,5.25,5.67S81.75,89,81.75,86.1ZM93,93.25v7.38H88.76V82.1h4.11v2a4.8,4.8,0,0,1,4.21-2.26,6.87,6.87,0,0,1,0,13.72A4.23,4.23,0,0,1,93,93.25Zm0-4.6a3.17,3.17,0,1,0,3.19-3.33A3.15,3.15,0,0,0,93,88.65Zm19.2,6.91c-4,0-6.39-2.39-6.7-6h4.21a2.4,2.4,0,0,0,2.6,2.37,2.14,2.14,0,0,0,2.31-2c0-1-.6-1.64-1.77-2l-2.41-.65c-2.73-.73-4.66-2.21-4.66-5.07,0-3.64,2.78-5.67,6.35-5.67a5.79,5.79,0,0,1,6,5.75h-4a2,2,0,0,0-2.05-2.16c-1.27,0-2,.67-2,1.64s.76,1.42,1.9,1.74l2.34.65c2.89.8,4.6,2.31,4.6,5.35C119,93.38,115.54,95.56,112.23,95.56ZM129.7,82.1h4.39l-5.22,13.1-2,5.43h-4.44l2.26-5.95-5-12.58h4.4l2.8,8.47Zm8.55,9a1.6,1.6,0,0,0,1.82,1.53c1,0,1.56-.52,1.56-1.22s-.34-.93-1.06-1.12l-1.8-.46c-2.52-.63-3.64-1.82-3.64-4,0-2.57,2.24-4.1,4.92-4.1,2.93,0,4.57,1.69,4.8,4.08h-3.5a1.19,1.19,0,0,0-1.23-1.22c-.75,0-1.17.41-1.17,1s.37.89,1,1l2.31.63c2.16.57,3.17,1.82,3.17,3.72,0,2.72-2.55,4.49-5.33,4.49s-5.09-1.25-5.38-4.39Zm9.24-10.29V77.4h1.62a1.42,1.42,0,0,1,1,.33,1,1,0,0,1,.37.82,1,1,0,0,1-.22.65,1.27,1.27,0,0,1-.57.41l.79,1.22h-.84l-.71-1.13h-.69v1.13Zm.73-1.81h.86a.67.67,0,0,0,.46-.13.44.44,0,0,0,0-.68.72.72,0,0,0-.46-.13h-.86Zm.58,3.49a3.35,3.35,0,1,1,3.35-3.35A3.36,3.36,0,0,1,148.8,82.51Zm0-5.91a2.56,2.56,0,1,0,2.56,2.56A2.56,2.56,0,0,0,148.8,76.6Z"/></g></g></svg>