<svg xmlns="http://www.w3.org/2000/svg" viewBox="0 0 168.74 25.53"><defs><style>.cls-1{fill:#cba2a6;}.cls-2{fill:#66243e;}</style></defs><g id="Layer_2" data-name="Layer 2"><g id="Layer_1-2" data-name="Layer 1"><rect class="cls-1" x="15.05" y="15.15" width="7.44" height="7.44" rx="2.12" transform="translate(-7.85 18.8) rotate(-45)"/><path class="cls-2" d="M58.85,15l2.5-9h3.74l-4.81,15H57.64L54.19,11.2l-3.45,9.85H48.1L43.3,6H47l2.51,9,3.3-9h2.7Z"/><path class="cls-2" d="M68.47,9a2,2,0,1,1,2-2A2,2,0,0,1,68.47,9Zm-1.76,12V10.24h3.52V21.05Z"/><path class="cls-2" d="M76.43,21.05H72.91V10.24h3.41v1.61A3.6,3.6,0,0,1,79.58,10c2.6,0,3.88,1.78,3.88,4.35v6.72H80V14.91C80,13.8,79.41,13,78.23,13a1.68,1.68,0,0,0-1.8,1.86Z"/><path class="cls-2" d="M93.48,17.68h3.24a5.65,5.65,0,0,1-5.51,3.62c-3.78,0-5.92-2.35-5.92-5.68A5.46,5.46,0,0,1,91.06,10a5.41,5.41,0,0,1,5.74,5.68v1.05H88.74a2.28,2.28,0,0,0,2.47,2A2.56,2.56,0,0,0,93.48,17.68Zm-4.74-3.13h4.7a2.36,2.36,0,0,0-4.7,0Z"/><path class="cls-2" d="M114.39,13.54a8,8,0,0,1-16,0,8,8,0,0,1,16,0Zm-3.65,0c0-2.4-1.48-4.68-4.35-4.68s-4.33,2.28-4.33,4.68,1.46,4.68,4.33,4.68S110.74,15.92,110.74,13.54Z"/><path class="cls-2" d="M120.05,19.44v6.09h-3.52V10.24h3.39v1.61A4,4,0,0,1,123.4,10a5.39,5.39,0,0,1,5.4,5.66,5.39,5.39,0,0,1-5.4,5.66A3.51,3.51,0,0,1,120.05,19.44Zm0-3.8a2.62,2.62,0,1,0,5.23,0,2.62,2.62,0,1,0-5.23,0Z"/><path class="cls-2" d="M135.9,21.35c-3.35,0-5.28-2-5.54-4.91h3.48A2,2,0,0,0,136,18.39a1.76,1.76,0,0,0,1.91-1.65c0-.82-.49-1.35-1.46-1.61l-2-.54c-2.25-.6-3.84-1.82-3.84-4.18,0-3,2.3-4.68,5.23-4.68a4.78,4.78,0,0,1,5,4.74h-3.32a1.7,1.7,0,0,0-1.7-1.78c-1.05,0-1.63.56-1.63,1.35s.62,1.18,1.57,1.44l1.93.54c2.38.66,3.79,1.91,3.79,4.42C141.47,19.55,138.62,21.35,135.9,21.35Z"/><path class="cls-2" d="M150.31,10.24h3.62l-4.31,10.81L148,25.53h-3.66l1.86-4.91-4.14-10.38h3.63l2.31,7Z"/><path class="cls-2" d="M157.37,17.68a1.32,1.32,0,0,0,1.5,1.27c.79,0,1.28-.43,1.28-1s-.28-.77-.88-.92l-1.48-.39c-2.08-.52-3-1.5-3-3.26,0-2.12,1.85-3.39,4.05-3.39a3.6,3.6,0,0,1,4,3.37h-2.89a1,1,0,0,0-1-1c-.62,0-1,.34-1,.81s.3.73.84.86l1.91.52c1.78.47,2.62,1.5,2.62,3.06,0,2.26-2.11,3.71-4.4,3.71s-4.2-1-4.44-3.62Z"/><path class="cls-2" d="M164.89,9.45V6.61h1.34a1.13,1.13,0,0,1,.81.28.88.88,0,0,1,.3.68.84.84,0,0,1-.17.53,1.17,1.17,0,0,1-.47.34l.64,1h-.69l-.58-.93h-.57v.93ZM165.5,8h.71a.59.59,0,0,0,.38-.1.37.37,0,0,0,.13-.28.38.38,0,0,0-.13-.29.66.66,0,0,0-.38-.1h-.71Z"/><path class="cls-2" d="M166,10.83a2.77,2.77,0,1,1,2.76-2.76A2.77,2.77,0,0,1,166,10.83ZM166,6a2.12,2.12,0,1,0,2.11,2.12A2.12,2.12,0,0,0,166,6Z"/><rect class="cls-2" x="7.86" y="7.86" width="7.44" height="7.44" rx="2.12" transform="translate(-4.8 11.58) rotate(-45)"/><rect class="cls-2" x="0.66" y="0.66" width="7.44" height="7.44" rx="2.12" transform="translate(-1.82 4.39) rotate(-45)"/><rect class="cls-2" x="15.05" y="0.66" width="7.44" height="7.44" rx="2.12" transform="translate(2.4 14.56) rotate(-45)"/><rect class="cls-2" x="29.43" y="0.66" width="7.44" height="7.44" rx="2.12" transform="translate(6.61 24.73) rotate(-45)"/><rect class="cls-2" x="22.24" y="7.86" width="7.44" height="7.44" rx="2.12" transform="translate(-0.58 21.75) rotate(-45)"/></g></g></svg>