<?xml version="1.0" encoding="UTF-8"?>
<svg id="Layer_1" data-name="Layer 1" xmlns="http://www.w3.org/2000/svg" viewBox="0 0 360.07 360.06">
  <path d="M258.94,148.63l-47.51-47.51c-17.34-17.34-45.46-17.34-62.8,0l-47.51,47.51c-17.34,17.34-17.34,45.46,0,62.8l47.51,47.51c17.34,17.34,45.46,17.34,62.8,0l47.51-47.51c17.34-17.34,17.34-45.46,0-62.8Z" fill="none" stroke="#cba2a6" stroke-miterlimit="10" stroke-width="4.25"/>
  <path d="M274.01,142.63l-56.58-56.58c-20.65-20.65-54.14-20.65-74.8,0l-56.58,56.58c-20.65,20.65-20.65,54.14,0,74.8l56.58,56.58c20.65,20.65,54.14,20.65,74.8,0l56.58-56.58c20.65-20.65,20.65-54.14,0-74.8Z" fill="none" stroke="#cba2a6" stroke-miterlimit="10" stroke-width="3.54"/>
  <path d="M289.08,136.64l-65.65-65.65c-23.97-23.97-62.82-23.97-86.79,0l-65.65,65.65c-23.97,23.97-23.97,62.82,0,86.79l65.65,65.65c23.97,23.97,62.82,23.97,86.79,0l65.65-65.65c23.97-23.97,23.97-62.82,0-86.79Z" fill="none" stroke="#cba2a6" stroke-miterlimit="10" stroke-width="2.83"/>
  <path d="M304.15,130.64l-74.72-74.72c-27.28-27.28-71.5-27.28-98.78,0l-74.73,74.72c-27.28,27.28-27.28,71.5,0,98.78l74.73,74.73c27.28,27.28,71.5,27.28,98.78,0l74.72-74.73c27.28-27.28,27.28-71.5,0-98.78Z" fill="none" stroke="#cba2a6" stroke-miterlimit="10" stroke-width="2.13"/>
  <path d="M319.22,124.65l-83.8-83.8c-30.59-30.59-80.19-30.59-110.77,0L40.85,124.65c-30.59,30.59-30.59,80.18,0,110.77l83.8,83.8c30.59,30.59,80.18,30.59,110.77,0l83.8-83.8c30.59-30.59,30.59-80.18,0-110.77Z" fill="none" stroke="#cba2a6" stroke-miterlimit="10" stroke-width="1.42"/>
  <path d="M334.29,118.65L241.42,25.78c-33.9-33.9-88.87-33.9-122.77,0L25.78,118.65c-33.9,33.9-33.9,88.87,0,122.77l92.87,92.87c33.9,33.9,88.87,33.9,122.77,0l92.87-92.87c33.9-33.9,33.9-88.87,0-122.77Z" fill="none" stroke="#cba2a6" stroke-miterlimit="10" stroke-width=".71"/>
</svg>